<svg width="66" height="65" viewBox="0 0 66 65" fill="none" xmlns="http://www.w3.org/2000/svg">
<path d="M32.3537 0.0183105C15.8279 0.0183105 16.8597 7.18488 16.8597 7.18488L16.8781 14.6097H32.6484V16.8388H10.6144C10.6144 16.8388 0.039505 15.6395 0.039505 32.3139C0.039505 48.9888 9.26951 48.3974 9.26951 48.3974H14.7779V40.6596C14.7779 40.6596 14.481 31.4296 23.8606 31.4296H39.5019C39.5019 31.4296 48.2896 31.5716 48.2896 22.9365V8.65898C48.2896 8.65898 49.6243 0.0183105 32.3537 0.0183105ZM23.658 5.01133C24.0306 5.01099 24.3997 5.08415 24.744 5.22661C25.0884 5.36906 25.4013 5.57803 25.6648 5.84154C25.9283 6.10505 26.1373 6.41794 26.2797 6.7623C26.4222 7.10666 26.4954 7.47573 26.495 7.84839C26.4954 8.22105 26.4222 8.59012 26.2797 8.93448C26.1373 9.27884 25.9283 9.59173 25.6648 9.85524C25.4013 10.1188 25.0884 10.3277 24.744 10.4702C24.3997 10.6126 24.0306 10.6858 23.658 10.6854C23.2853 10.6858 22.9162 10.6126 22.5719 10.4702C22.2275 10.3277 21.9146 10.1188 21.6511 9.85524C21.3876 9.59173 21.1786 9.27884 21.0362 8.93448C20.8937 8.59012 20.8206 8.22105 20.8209 7.84839C20.8206 7.47573 20.8937 7.10666 21.0362 6.7623C21.1786 6.41794 21.3876 6.10505 21.6511 5.84154C21.9146 5.57803 22.2275 5.36906 22.5719 5.22661C22.9162 5.08415 23.2853 5.01099 23.658 5.01133Z" fill="url(#paint0_linear_7_15)"/>
<path d="M32.823 64.7772C49.3488 64.7772 48.3169 57.6107 48.3169 57.6107L48.2986 50.1861H32.528V47.957H54.562C54.562 47.957 65.1369 49.1563 65.1369 32.4814C65.1369 15.8067 55.9069 16.3981 55.9069 16.3981H50.3985V24.1357C50.3985 24.1357 50.6954 33.3657 41.3158 33.3657H25.6745C25.6745 33.3657 16.8867 33.2237 16.8867 41.859V56.1368C16.8867 56.1368 15.5523 64.7772 32.8227 64.7772M41.5184 59.7847C41.1458 59.785 40.7767 59.7119 40.4323 59.5694C40.088 59.427 39.7751 59.218 39.5116 58.9545C39.2481 58.691 39.0391 58.3781 38.8967 58.0337C38.7542 57.6894 38.681 57.3203 38.6814 56.9477C38.681 56.575 38.7541 56.2059 38.8966 55.8615C39.039 55.5171 39.248 55.2042 39.5115 54.9406C39.775 54.6771 40.0879 54.4681 40.4323 54.3256C40.7767 54.1832 41.1457 54.11 41.5184 54.1103C41.8911 54.11 42.2602 54.1832 42.6045 54.3256C42.9489 54.4681 43.2618 54.677 43.5253 54.9405C43.7888 55.2041 43.9978 55.5169 44.1402 55.8613C44.2827 56.2057 44.3558 56.5747 44.3555 56.9474C44.3558 57.3201 44.2827 57.6891 44.1402 58.0335C43.9978 58.3778 43.7888 58.6907 43.5253 58.9542C43.2618 59.2178 42.9489 59.4267 42.6045 59.5692C42.2602 59.7116 41.8911 59.785 41.5184 59.7847Z" fill="url(#paint1_linear_7_15)"/>
<defs>
<linearGradient id="paint0_linear_7_15" x1="625.623" y1="582.486" x2="3851.65" y2="3776.33" gradientUnits="userSpaceOnUse">
<stop stop-color="#387EB8"/>
<stop offset="1" stop-color="#366994"/>
</linearGradient>
<linearGradient id="paint1_linear_7_15" x1="940.249" y1="1012.04" x2="4404.63" y2="4287.04" gradientUnits="userSpaceOnUse">
<stop stop-color="#FFE052"/>
<stop offset="1" stop-color="#FFC331"/>
</linearGradient>
</defs>
</svg>
