<svg width="67" height="65" viewBox="0 0 67 65" fill="none" xmlns="http://www.w3.org/2000/svg">
<path d="M9.92531 8.63281L0.877106 17.615V56.3235H57.0574L66.1046 47.3418V8.63281H59.8352H9.92531ZM25.1546 16.9741C29.3999 16.9741 32.3798 18.166 34.0693 20.5725C35.7806 22.9541 36.6251 26.6409 36.6251 31.6291C36.6251 34.9162 36.2696 37.5644 35.582 39.5738C34.8696 41.603 33.7366 43.1483 32.1355 44.2076L35.6039 49.7478L31.3565 51.7116L27.6891 45.7311C27.1559 45.9073 26.3104 45.9728 25.1551 45.9728C20.8641 45.9728 17.8629 44.8261 16.1739 42.5313C14.485 40.2365 13.64 36.595 13.64 31.6509C13.64 26.6861 14.5063 23.0004 16.2176 20.5943C17.9289 18.1873 20.9301 16.9736 25.1551 16.9736L25.1546 16.9741ZM42.3826 18.5849H46.8539V24.5218H52.545V28.3187H46.8539V37.344C46.8539 39.0223 46.985 40.1253 47.2297 40.6768C47.4745 41.2283 48.1184 41.4939 49.1203 41.4939L52.4983 41.3608L52.6999 44.9358C50.8545 45.2882 49.4534 45.465 48.4764 45.465C46.1405 45.465 44.5393 44.9353 43.673 43.876C42.8062 42.8167 42.3608 40.8093 42.3608 37.8518V28.3415H39.2276V24.5218H42.3826V18.5849ZM25.178 20.9691C22.5983 20.9691 20.8204 21.808 19.8409 23.5061C18.8862 25.2063 18.3966 27.8987 18.3966 31.6291C18.3966 35.3361 18.8638 38.0067 19.7972 39.5957C20.73 41.1846 22.5312 42.0017 25.1775 42.0017C27.8216 42.0017 29.601 41.2064 30.5349 39.6393C31.4469 38.0722 31.9121 35.4021 31.9121 31.6728C31.9121 27.9216 31.4464 25.2063 30.4902 23.5061C29.5355 21.808 27.778 20.9691 25.178 20.9691Z" fill="#41CD52"/>
</svg>
