<svg width="32" height="33" viewBox="0 0 32 33" fill="none" xmlns="http://www.w3.org/2000/svg">
<path d="M17.5 30C24.9558 30 31 23.9558 31 16.5C31 9.04416 24.9558 3 17.5 3C10.0442 3 4 9.04416 4 16.5C4 23.9558 10.0442 30 17.5 30Z" fill="#E6E6E6"/>
<path fill-rule="evenodd" clip-rule="evenodd" d="M10.1099 16.3574C14.0454 14.6428 16.6697 13.5124 17.9828 12.9663C21.7319 11.4069 22.5109 11.136 23.0187 11.127C23.1304 11.1251 23.3801 11.1528 23.5418 11.284C23.6784 11.3948 23.716 11.5445 23.734 11.6496C23.7519 11.7547 23.7743 11.994 23.7565 12.1811C23.5534 14.3157 22.6743 19.496 22.227 21.8869C22.0378 22.8985 21.6652 23.2377 21.3044 23.2709C20.5205 23.3431 19.9252 22.7528 19.1659 22.2551C17.9777 21.4762 17.3064 20.9914 16.1531 20.2314C14.8202 19.353 15.6843 18.8703 16.4439 18.0813C16.6427 17.8748 20.0969 14.733 20.1637 14.448C20.1721 14.4123 20.1798 14.2794 20.1009 14.2093C20.022 14.1391 19.9055 14.1631 19.8214 14.1822C19.7022 14.2092 17.8041 15.4638 14.127 17.946C13.5882 18.3159 13.1002 18.4962 12.663 18.4867C12.181 18.4763 11.2538 18.2142 10.5645 17.9901C9.71903 17.7153 9.04709 17.57 9.1056 17.1033C9.13608 16.8602 9.47085 16.6116 10.1099 16.3574Z" fill="#151515"/>
</svg>
